<?xml version="1.0" standalone="no"?>
<!DOCTYPE svg PUBLIC "-//W3C//DTD SVG 20010904//EN"
 "http://www.w3.org/TR/2001/REC-SVG-20010904/DTD/svg10.dtd">
<svg version="1.0" xmlns="http://www.w3.org/2000/svg"
 width="400.000000pt" height="400.000000pt" viewBox="0 0 400.000000 400.000000"
 preserveAspectRatio="xMidYMid meet">
<metadata>
Created by potrace 1.11, written by Peter Selinger 2001-2013
</metadata>
<g transform="translate(0.000000,400.000000) scale(0.100000,-0.100000)"
fill="#000000" stroke="none">
<path d="M1868 3429 c-489 -40 -931 -345 -1153 -794 -107 -216 -146 -388 -146
-635 0 -247 39 -419 146 -635 144 -291 366 -512 660 -656 207 -101 383 -141
625 -140 243 0 418 39 625 140 294 144 515 364 660 656 106 214 146 387 146
635 0 248 -40 421 -146 635 -145 292 -366 512 -660 656 -234 114 -488 160
-757 138z m322 -124 c195 -29 382 -102 549 -212 110 -73 279 -242 353 -354
303 -453 303 -1025 0 -1478 -74 -112 -243 -281 -353 -354 -455 -301 -1023
-301 -1478 0 -110 73 -279 242 -354 354 -301 453 -301 1025 0 1478 75 112 244
281 354 354 279 185 611 261 929 212z"/>
<path d="M2370 2945 c-69 -23 -237 -82 -374 -129 -137 -47 -250 -86 -252 -86
-2 0 -4 43 -4 95 l0 95 -170 0 -170 0 0 -154 0 -154 -42 -16 c-24 -9 -85 -31
-136 -48 l-94 -33 -130 -298 -130 -298 13 -72 c6 -40 15 -75 18 -78 3 -4 49 2
101 14 143 31 473 31 617 -1 401 -87 728 -296 965 -616 33 -44 66 -92 74 -108
l15 -29 39 22 c22 13 40 26 40 30 0 8 -125 186 -145 206 -12 12 -15 59 -15
269 0 140 -1 254 -3 254 -1 0 -77 14 -167 30 -90 17 -166 30 -167 30 -2 0 -3
-58 -3 -129 l0 -129 -92 55 c-110 66 -260 132 -380 167 -94 27 -245 56 -292
56 -41 0 -24 12 54 40 96 34 264 120 365 188 230 154 408 351 544 602 l40 75
15 -35 c57 -135 375 -862 378 -865 8 -8 98 -16 98 -9 0 5 -60 146 -133 314
-74 168 -180 414 -238 547 -57 133 -106 242 -109 242 -3 0 -61 -20 -130 -44z
m5 -172 c-135 -250 -304 -436 -537 -590 -98 -64 -265 -149 -348 -177 -163 -53
-296 -81 -438 -92 l-91 -7 118 269 118 269 146 50 147 50 0 143 0 142 80 0 79
0 3 -114 3 -113 370 128 c204 70 376 128 383 128 9 1 -4 -31 -33 -86z m74
-1029 l51 -7 0 -164 0 -164 -80 68 -79 68 -1 109 0 109 29 -6 c15 -3 51 -9 80
-13z"/>
<path d="M2340 2186 c0 -91 1 -166 3 -166 2 0 52 -9 112 -20 60 -11 115 -20
122 -20 10 0 13 36 13 164 l0 163 -92 17 c-51 9 -108 19 -125 22 l-33 6 0
-166z m158 -27 l3 -75 -36 4 -35 4 0 75 0 74 33 -3 32 -3 3 -76z"/>
</g>
</svg>
